<svg width="70" height="71" viewBox="0 0 70 71" fill="none" xmlns="http://www.w3.org/2000/svg">
<g id="Frame 411">
<rect y="0.391602" width="70" height="70" rx="35" fill="white"/>
<g id="attach_money">
<mask id="mask0_516_2439" style="mask-type:alpha" maskUnits="userSpaceOnUse" x="15" y="15" width="40" height="41">
<rect id="Bounding box" x="15" y="15.3916" width="40" height="40" fill="#D9D9D9"/>
</mask>
<g mask="url(#mask0_516_2439)">
<path id="attach_money_2" d="M35.0419 50.3916C34.5696 50.3916 34.1738 50.2319 33.8544 49.9124C33.5349 49.593 33.3752 49.1972 33.3752 48.7249V46.8083C32.1252 46.5305 31.028 46.0444 30.0835 45.3499C29.1391 44.6555 28.3752 43.6833 27.7919 42.4333C27.5974 42.0444 27.5905 41.6347 27.771 41.2041C27.9516 40.7735 28.278 40.461 28.7502 40.2666C29.1391 40.0999 29.5419 40.1069 29.9585 40.2874C30.3752 40.468 30.6946 40.7666 30.9169 41.1833C31.3891 42.0166 31.9863 42.6485 32.7085 43.0791C33.4307 43.5097 34.3196 43.7249 35.3752 43.7249C36.5141 43.7249 37.4794 43.468 38.271 42.9541C39.0627 42.4402 39.4585 41.6416 39.4585 40.5583C39.4585 39.586 39.153 38.8152 38.5419 38.2458C37.9307 37.6763 36.5141 37.0305 34.2919 36.3083C31.903 35.5583 30.2641 34.6624 29.3752 33.6208C28.4863 32.5791 28.0419 31.3083 28.0419 29.8083C28.0419 28.0027 28.6252 26.5999 29.7919 25.5999C30.9585 24.5999 32.153 24.0305 33.3752 23.8916V22.0583C33.3752 21.586 33.5349 21.1902 33.8544 20.8708C34.1738 20.5513 34.5696 20.3916 35.0419 20.3916C35.5141 20.3916 35.9099 20.5513 36.2294 20.8708C36.5488 21.1902 36.7085 21.586 36.7085 22.0583V23.8916C37.7641 24.0583 38.6807 24.3985 39.4585 24.9124C40.2363 25.4263 40.8752 26.0583 41.3752 26.8083C41.6252 27.1694 41.6738 27.5722 41.521 28.0166C41.3682 28.461 41.0557 28.7805 40.5835 28.9749C40.1946 29.1416 39.7919 29.1485 39.3752 28.9958C38.9585 28.843 38.5696 28.5722 38.2085 28.1833C37.8474 27.7944 37.4238 27.4958 36.9377 27.2874C36.4516 27.0791 35.8474 26.9749 35.1252 26.9749C33.903 26.9749 32.9724 27.2458 32.3335 27.7874C31.6946 28.3291 31.3752 29.0027 31.3752 29.8083C31.3752 30.7249 31.7919 31.4472 32.6252 31.9749C33.4585 32.5027 34.903 33.0583 36.9585 33.6416C38.8752 34.1972 40.3266 35.0791 41.3127 36.2874C42.2988 37.4958 42.7919 38.8916 42.7919 40.4749C42.7919 42.4472 42.2085 43.9472 41.0419 44.9749C39.8752 46.0027 38.4307 46.6416 36.7085 46.8916V48.7249C36.7085 49.1972 36.5488 49.593 36.2294 49.9124C35.9099 50.2319 35.5141 50.3916 35.0419 50.3916Z" fill="#0E6EFF"/>
</g>
</g>
</g>
</svg>
