<svg width="250" height="37" viewBox="0 0 250 37" fill="none" xmlns="http://www.w3.org/2000/svg">
<rect width="250" height="37" fill="#1E1E1E"/>
<g id="Frame 141">
<rect width="1440" height="2803" transform="translate(-94 -35)" fill="white"/>
<g id="Frame 163">
<g id="Clip path group">
<mask id="mask0_0_1" style="mask-type:luminance" maskUnits="userSpaceOnUse" x="0" y="0" width="250" height="37">
<g id="clip0_4_9">
<path id="Vector" d="M250 0.847168H0V36.1525H250V0.847168Z" fill="white"/>
</g>
</mask>
<g mask="url(#mask0_0_1)">
<g id="Group">
<path id="Vector_2" d="M65.064 11.7991C63.9961 10.6306 62.6823 9.69359 61.2096 9.05035C59.7368 8.40711 58.1388 8.07226 56.5213 8.068C54.637 8.05894 52.7826 8.5212 51.14 9.40943C49.5509 10.2393 48.2261 11.4689 47.307 12.9667C46.3953 14.5079 45.9296 16.2559 45.9583 18.0289C45.9583 20.9504 46.9456 23.379 48.8958 25.2446C50.846 27.1101 53.3897 28.0598 56.4485 28.0598C57.9753 28.0853 59.4918 27.8143 60.9073 27.2632C62.1724 26.7443 63.5346 25.8154 64.9534 24.4947L62.5662 22.0973C61.709 22.9562 60.7055 23.6679 59.5991 24.2015C58.6229 24.6149 57.5662 24.8228 56.4997 24.8113C55.2461 24.8202 54.011 24.52 52.9122 23.9395C51.8524 23.3807 50.9774 22.5463 50.3874 21.5316C49.781 20.4595 49.4734 19.2545 49.4946 18.0341C49.4826 17.1512 49.6546 16.275 50.0004 15.4572C50.3462 14.6393 50.8588 13.8963 51.508 13.2721C52.1572 12.6479 52.9297 12.1552 53.7801 11.8228C54.6305 11.4905 55.5415 11.3254 56.4593 11.3373C58.7224 11.3373 60.7751 12.248 62.6013 14.0513L65.064 11.7991Z" fill="#0086FF"/>
<path id="Vector_3" d="M51.5199 13.278C50.8642 13.8979 50.3472 14.6403 50.0007 15.4596C49.6542 16.2788 49.4855 17.1575 49.505 18.0417C49.4838 19.2622 49.7913 20.4671 50.3978 21.5393C50.9861 22.5497 51.857 23.3812 52.9118 23.9394C54.0194 24.5247 55.2654 24.825 56.529 24.8112C57.5957 24.8219 58.6524 24.6131 59.6283 24.1988C60.7348 23.6652 61.7383 22.9535 62.5955 22.0946L64.9826 24.492C63.5557 25.8127 62.1935 26.7442 60.9366 27.2605C59.5211 27.8116 58.0046 28.0826 56.4778 28.0571C53.4108 28.0571 50.8672 27.11 48.9251 25.2419C46.9829 23.3737 45.9876 20.9477 45.9876 18.0262C45.9588 16.2532 46.4245 14.5052 47.3363 12.964C48.2476 11.4709 49.5618 10.2427 51.1396 9.40935C52.7814 8.5184 54.6359 8.05345 56.5209 8.06013C58.1384 8.0644 59.7364 8.39924 61.2092 9.04248C62.6819 9.68572 63.9957 10.6227 65.0636 11.7912L62.6008 14.0512C60.7855 12.2349 58.722 11.3372 56.4589 11.3372C55.5418 11.3213 54.631 11.4852 53.7818 11.8188C52.9327 12.1525 52.1631 12.649 51.5199 13.278Z" fill="#0086FF"/>
<path id="Vector_4" d="M25.1049 22.1051C24.2478 22.9641 23.2443 23.6758 22.1377 24.2093C21.1606 24.6227 20.1031 24.8306 19.0357 24.8191C17.774 24.8296 16.5309 24.5266 15.4266 23.9395C14.3661 23.3815 13.491 22.5469 12.9018 21.5316C12.2942 20.4599 11.9865 19.2546 12.009 18.0341C11.9981 17.1519 12.1709 16.2765 12.5172 15.4596C12.8635 14.6426 13.3763 13.9006 14.0253 13.2772C14.6744 12.6538 15.4466 12.1618 16.2964 11.8299C17.1463 11.4981 18.0566 11.3332 18.9737 11.3451C21.2341 11.3451 23.2895 12.2558 25.113 14.0591L27.5784 11.7991C26.5102 10.6302 25.196 9.69307 23.7227 9.04982C22.2495 8.40657 20.6509 8.0719 19.033 8.06801C17.1495 8.05857 15.2959 8.52086 13.6544 9.40944C12.0633 10.2411 10.7374 11.4734 9.81871 12.9745C8.90696 14.5156 8.44124 16.2637 8.47001 18.0367C8.47001 20.9582 9.45996 23.3868 11.4102 25.2524C13.3604 27.1179 15.904 28.0676 18.9629 28.0676C20.4897 28.093 22.0062 27.8221 23.4217 27.271C24.6895 26.7521 26.0516 25.8232 27.4678 24.5025L25.1049 22.1051Z" fill="#0086FF"/>
<path id="Vector_5" d="M23.4373 27.2709C22.0218 27.822 20.5053 28.0929 18.9785 28.0675C15.9142 28.0675 13.3706 27.1204 11.4258 25.2523C9.48097 23.3841 8.48563 20.9581 8.48563 18.0366C8.45686 16.2636 8.92258 14.5155 9.83433 12.9744C10.7485 11.4754 12.0686 10.2432 13.6538 9.40936C15.2945 8.51807 17.1482 8.05308 19.0324 8.06014C20.6503 8.06404 22.2489 8.39871 23.7221 9.04196C25.1953 9.68521 26.5096 10.6223 27.5778 11.7912L25.1123 14.059C23.2997 12.2427 21.2335 11.345 18.9731 11.345C18.0553 11.3331 17.1443 11.4982 16.2939 11.8305C15.4435 12.1628 14.671 12.6556 14.0218 13.2798C13.3726 13.904 12.86 14.647 12.5142 15.4648C12.1684 16.2827 11.9964 17.1589 12.0084 18.0417C11.9859 19.2623 12.2936 20.4676 12.9012 21.5393C13.4916 22.5517 14.3666 23.3835 15.426 23.9394C16.5326 24.5247 17.7777 24.825 19.0405 24.8112C20.108 24.8219 21.1656 24.6131 22.1425 24.1988C23.249 23.6653 24.2526 22.9536 25.1096 22.0946L27.4968 24.492C26.0672 25.8231 24.705 26.7546 23.4373 27.2709Z" fill="#0086FF"/>
<path id="Vector_6" d="M93.5842 16.8279H87.4153V11.8565H95.6909V8.55615H83.9141V27.5827H87.4153V20.0763H93.5842V16.8279Z" fill="#0086FF"/>
<path id="Vector_7" d="M87.4148 27.5723H83.9082V8.55615H95.685V11.8565H87.4148V16.8279H93.5837V20.0763H87.4148V27.5723Z" fill="#0086FF"/>
<path id="Vector_8" d="M122.732 24.4589C122.239 24.7696 121.658 24.9272 121.068 24.9104C120.481 24.9284 119.904 24.7677 119.417 24.4511C118.956 24.1326 118.613 23.6808 118.438 23.1616C118.239 22.6193 118.142 21.693 118.142 20.3256V13.5796H114.67V19.389C114.67 21.6463 114.813 23.2213 115.099 24.0593C115.444 25.2035 116.171 26.2065 117.168 26.9134C118.142 27.5932 119.442 27.9357 121.03 27.9357C122.495 27.9357 123.728 27.6425 124.664 27.0587C125.633 26.4522 126.386 25.5748 126.822 24.5445C127.221 23.6468 127.423 21.9499 127.423 19.4798V13.5821H123.989V20.4372C123.989 21.815 123.911 22.6945 123.747 23.1253C123.565 23.6626 123.21 24.13 122.732 24.4589Z" fill="#0086FF"/>
<path id="Vector_9" d="M123.988 20.4366V13.5815H127.42V19.4921C127.42 21.9571 127.217 23.6591 126.818 24.5569C126.382 25.5872 125.629 26.4645 124.66 27.0711C123.716 27.6549 122.502 27.9481 121.027 27.9481C119.438 27.9481 118.138 27.6056 117.164 26.9258C116.167 26.2189 115.44 25.2158 115.095 24.0717C114.809 23.2232 114.666 21.6483 114.666 19.4013V13.5815H118.146V20.3276C118.146 21.695 118.243 22.6213 118.443 23.1636C118.619 23.6796 118.961 24.1285 119.419 24.4453C119.905 24.7619 120.483 24.9226 121.07 24.9046C121.658 24.9224 122.238 24.7667 122.732 24.4583C123.208 24.1332 123.564 23.6706 123.748 23.1376C123.91 22.6939 123.988 21.8144 123.988 20.4366Z" fill="#0086FF"/>
<path id="Vector_10" d="M138.517 13.2151C137.814 13.2157 137.117 13.3479 136.467 13.6043C135.644 13.9608 134.883 14.4359 134.209 15.0132L133.966 15.2078V13.581H130.535V27.592H133.966V21.9928C133.966 20.4801 134.023 19.5227 134.133 19.0634C134.298 18.2747 134.705 17.5517 135.301 16.9877C135.849 16.4809 136.581 16.2013 137.341 16.2093C137.898 16.1916 138.445 16.3552 138.894 16.6738C139.336 17.0193 139.646 17.4955 139.776 18.0282C139.941 18.6042 140.019 19.7277 140.019 21.4609V27.5713H143.41V18.285C143.41 16.6841 142.989 15.4647 142.158 14.6525C141.685 14.1874 141.118 13.82 140.491 13.5728C139.865 13.3257 139.193 13.2039 138.517 13.2151Z" fill="#0086FF"/>
<path id="Vector_11" d="M143.41 27.5721H140.019V21.4695C140.019 19.7362 139.941 18.6154 139.776 18.0368C139.647 17.5012 139.337 17.0221 138.894 16.6746C138.446 16.3542 137.899 16.1887 137.341 16.2049C136.581 16.1969 135.849 16.4765 135.301 16.9833C134.705 17.5473 134.298 18.2703 134.133 19.059C134.023 19.5183 133.966 20.4757 133.966 21.9884V27.5721H130.535V13.561H133.966V15.1878L134.209 14.9932C134.883 14.4159 135.644 13.9408 136.467 13.5843C137.117 13.328 137.814 13.1958 138.517 13.1951C139.194 13.1877 139.866 13.3134 140.491 13.5646C141.117 13.8158 141.682 14.1872 142.153 14.6559C142.984 15.4655 143.404 16.6849 143.404 18.2884L143.41 27.5721Z" fill="#0086FF"/>
<path id="Vector_12" d="M184.131 15.2999L183.862 15.8733V13.5822H180.951V27.5933H184.355L184.342 21.265C184.342 19.223 184.541 17.892 184.954 17.1758C185.152 16.8317 185.443 16.5455 185.796 16.3476C186.15 16.1498 186.552 16.0478 186.961 16.0523C187.18 16.054 187.398 16.0784 187.611 16.125L188.59 13.5304C188.173 13.3416 187.719 13.2399 187.258 13.232C186.616 13.2272 185.989 13.408 185.456 13.7509C184.874 14.14 184.416 14.6761 184.131 15.2999Z" fill="#0086FF"/>
<path id="Vector_13" d="M188.59 13.5148L187.611 16.1094C187.398 16.0628 187.18 16.0385 186.961 16.0368C186.552 16.0322 186.15 16.1343 185.796 16.3321C185.443 16.5299 185.152 16.8161 184.954 17.1603C184.541 17.8712 184.342 19.2074 184.342 21.2494L184.355 27.5778H180.951V13.5667H183.851V15.8578L184.121 15.2843C184.404 14.6576 184.862 14.1188 185.445 13.7276C185.978 13.3847 186.606 13.2039 187.247 13.2086C187.712 13.2175 188.17 13.3219 188.59 13.5148Z" fill="#0086FF"/>
<path id="Vector_14" d="M195.951 19.1864L194.586 18.5299C194.165 18.359 193.775 18.1242 193.431 17.8346C193.262 17.6669 193.165 17.4432 193.161 17.2093C193.162 17.0611 193.2 16.9153 193.272 16.7846C193.344 16.6538 193.449 16.5422 193.577 16.4594C193.894 16.2529 194.273 16.1526 194.656 16.174C195.427 16.174 196.274 16.6073 197.205 17.4558L199.317 15.4241C198.766 14.7321 198.056 14.1725 197.242 13.7893C196.428 13.4062 195.532 13.2099 194.626 13.2161C193.386 13.1684 192.174 13.5851 191.246 14.3785C190.831 14.7254 190.499 15.1545 190.273 15.6364C190.047 16.1183 189.932 16.6416 189.935 17.1703C189.935 18.8543 191.12 20.2839 193.458 21.4152L194.712 22.0171C195.859 22.575 196.417 23.1432 196.417 23.7581C196.412 23.936 196.364 24.1102 196.276 24.2667C196.188 24.4231 196.062 24.5573 195.91 24.6585C195.541 24.9182 195.091 25.0491 194.634 25.0295C194.059 25.0026 193.499 24.8414 193.002 24.5599C192.45 24.2761 191.953 23.9031 191.532 23.4572L189.434 25.6574C190.018 26.3926 190.776 26.9837 191.644 27.382C192.513 27.7803 193.467 27.9745 194.429 27.9485C196.013 27.9485 197.288 27.5334 198.224 26.7135C198.998 26.0258 199.488 25.0924 199.603 24.0851C199.719 23.0778 199.452 22.0643 198.853 21.231C198.34 20.5434 197.361 19.8558 195.951 19.1864Z" fill="#0086FF"/>
<path id="Vector_15" d="M198.229 26.7131C197.293 27.5331 196.017 27.9482 194.434 27.9482C193.472 27.9742 192.516 27.78 191.648 27.3817C190.779 26.9834 190.022 26.3923 189.438 25.6571L191.536 23.4569C191.956 23.9028 192.455 24.2758 193.007 24.5596C193.503 24.8411 194.063 25.0023 194.639 25.0292C195.095 25.0488 195.545 24.9179 195.914 24.6582C196.066 24.557 196.191 24.4228 196.279 24.2664C196.367 24.1099 196.416 23.9357 196.421 23.7578C196.421 23.1429 195.862 22.5747 194.716 22.0168L193.462 21.4149C191.123 20.281 189.939 18.854 189.939 17.17C189.934 16.6417 190.049 16.1186 190.274 15.6368C190.499 15.1549 190.83 14.7256 191.244 14.3782C192.17 13.5867 193.379 13.1702 194.617 13.2158C195.523 13.2096 196.418 13.4059 197.232 13.789C198.045 14.1722 198.756 14.7318 199.307 15.4238L197.201 17.4529C196.281 16.6044 195.423 16.1711 194.651 16.1711C194.269 16.1497 193.89 16.25 193.572 16.4565C193.444 16.5393 193.341 16.6509 193.268 16.7817C193.196 16.9124 193.158 17.0582 193.158 17.2064C193.161 17.4403 193.257 17.664 193.427 17.8317C193.77 18.1213 194.16 18.3561 194.581 18.527L195.947 19.1835C197.358 19.8529 198.336 20.5405 198.854 21.2281C199.453 22.0614 199.72 23.075 199.604 24.0822C199.489 25.0895 198.999 26.0229 198.225 26.7106L198.229 26.7131Z" fill="#0086FF"/>
<path id="Vector_16" d="M207.02 8.55615H203.492V27.5827H214.278V24.3601H207.02V8.55615Z" fill="#0086FF"/>
<path id="Vector_17" d="M214.277 24.3601V27.5723H203.488V8.55615H207.016V24.3601H214.277Z" fill="#0086FF"/>
<path id="Vector_18" d="M3.5228 29.326V7.67368C3.52351 6.7621 3.90029 5.88806 4.5704 5.24347C5.24051 4.59889 6.14917 4.23646 7.09685 4.23578H16.2464V0.847168H7.09685C5.2153 0.849228 3.41144 1.56911 2.08098 2.84888C0.750531 4.12866 0.00214177 5.86381 0 7.67368V29.326C0.00214177 31.1358 0.750531 32.871 2.08098 34.1508C3.41144 35.4305 5.2153 36.1504 7.09685 36.1525H16.2464V32.7613H7.09685C6.14964 32.7606 5.24139 32.3985 4.57135 31.7545C3.90132 31.1105 3.52423 30.2371 3.5228 29.326Z" fill="#0086FF"/>
<path id="Vector_19" d="M16.2464 32.7613V36.1499H7.09685C5.21577 36.1478 3.41231 35.4283 2.08194 34.1491C0.75156 32.8699 0.00285539 31.1354 0 29.326V7.67368C0.00214177 5.86381 0.750531 4.12866 2.08098 2.84888C3.41144 1.56911 5.2153 0.849228 7.09685 0.847168H16.2464V4.23578H7.09685C6.14917 4.23646 5.24051 4.59889 4.5704 5.24347C3.90029 5.88806 3.52351 6.7621 3.5228 7.67368V29.326C3.52423 30.2371 3.90132 31.1105 4.57135 31.7545C5.24139 32.3985 6.14964 32.7606 7.09685 32.7613H16.2464Z" fill="#0086FF"/>
<path id="Vector_20" d="M29.6066 0.847168H20.457V4.23578H29.6066C30.5538 4.23715 31.4618 4.59988 32.1313 5.24439C32.8008 5.8889 33.1772 6.76255 33.1779 7.67368V29.326C33.1765 30.2366 32.7998 31.1096 32.1303 31.7536C31.4609 32.3975 30.5533 32.7599 29.6066 32.7613H20.457V36.1499H29.6066C31.4881 36.1478 33.292 35.4279 34.6225 34.1482C35.9529 32.8684 36.7013 31.1332 36.7034 29.3234V7.67368C36.7013 5.86381 35.9529 4.12866 34.6225 2.84888C33.292 1.56911 31.4881 0.849228 29.6066 0.847168Z" fill="#0086FF"/>
<path id="Vector_21" d="M36.7034 29.326C36.7013 31.1358 35.9529 32.871 34.6225 34.1508C33.292 35.4305 31.4881 36.1504 29.6066 36.1525H20.457V32.7613H29.6066C30.5533 32.7599 31.4609 32.3975 32.1303 31.7536C32.7998 31.1096 33.1765 30.2366 33.1779 29.326V7.67368C33.1772 6.7621 32.8005 5.88806 32.1303 5.24347C31.4602 4.59889 30.5516 4.23646 29.6039 4.23578H20.457V0.847168H29.6066C31.4881 0.849228 33.292 1.56911 34.6225 2.84888C35.9529 4.12866 36.7013 5.86381 36.7034 7.67368V29.326Z" fill="#0086FF"/>
<path id="Vector_22" d="M157.501 14.4507L157.204 14.2768L157.083 14.2068C155.905 13.556 154.57 13.2142 153.212 13.2156C151.195 13.2362 149.268 14.0238 147.853 15.4065C146.438 16.7892 145.649 18.6545 145.659 20.5948C145.642 21.5625 145.83 22.5234 146.211 23.419C146.592 24.3147 147.159 25.1264 147.877 25.8048C148.567 26.4929 149.397 27.0379 150.314 27.4065C151.232 27.775 152.218 27.9593 153.212 27.948C154.577 27.9601 155.922 27.6254 157.11 26.9776L157.204 26.9205L157.496 26.7519V27.5718H160.927V8.06787H157.501V14.4507ZM156.268 23.6798C155.882 24.0741 155.414 24.3857 154.894 24.5945C154.375 24.8033 153.815 24.9045 153.253 24.8915C152.692 24.9083 152.134 24.8106 151.616 24.6049C151.097 24.3992 150.63 24.0901 150.245 23.698C149.46 22.904 149.061 21.8558 149.061 20.5844C149.04 20.0217 149.136 19.4607 149.341 18.9335C149.547 18.4063 149.858 17.9233 150.258 17.5123C151.057 16.7455 152.14 16.3148 153.269 16.3148C154.397 16.3148 155.48 16.7455 156.279 17.5123C157.082 18.3497 157.507 19.4591 157.46 20.5974C157.501 21.7358 157.072 22.8436 156.268 23.6798Z" fill="#0086FF"/>
<path id="Vector_23" d="M108.341 14.2075C107.161 13.5556 105.823 13.2138 104.462 13.2163C102.445 13.2368 100.518 14.0245 99.1032 15.4072C97.688 16.7899 96.8992 18.6552 96.9093 20.5955C96.8924 21.5629 97.0799 22.5236 97.4606 23.4192C97.8413 24.3148 98.4072 25.1266 99.1239 25.8055C99.8161 26.4951 100.648 27.041 101.568 27.4095C102.488 27.7781 103.476 27.9616 104.473 27.9487C105.838 27.9605 107.183 27.6257 108.371 26.9783C109.538 26.338 110.502 25.4055 111.162 24.2799C111.837 23.1513 112.191 21.8715 112.187 20.5695C112.192 19.2757 111.837 18.0041 111.161 16.8859C110.484 15.7676 109.51 14.8431 108.338 14.2075H108.341ZM107.532 23.6857C107.138 24.0674 106.669 24.3704 106.153 24.5772C105.637 24.7839 105.083 24.8904 104.524 24.8904C103.965 24.8904 103.411 24.7839 102.895 24.5772C102.379 24.3704 101.91 24.0674 101.516 23.6857C100.729 22.9021 100.343 21.8643 100.343 20.5825C100.302 19.4466 100.732 18.3416 101.538 17.5104C102.337 16.7434 103.421 16.3127 104.55 16.3127C105.679 16.3127 106.762 16.7434 107.561 17.5104C108.364 18.3478 108.789 19.4572 108.743 20.5955C108.777 21.7381 108.34 22.8473 107.526 23.6805L107.532 23.6857Z" fill="#0086FF"/>
<path id="Vector_24" d="M178.454 20.9359C178.454 18.624 177.731 16.7377 176.296 15.3314C174.861 13.9251 172.984 13.2168 170.699 13.2168C169.697 13.1913 168.7 13.3661 167.771 13.73C166.843 14.094 166.003 14.6393 165.304 15.3314C163.88 16.7377 163.147 18.5306 163.147 20.6608C163.121 21.6246 163.298 22.5834 163.669 23.479C164.04 24.3746 164.597 25.1884 165.304 25.8709C166.734 27.2512 168.614 27.9466 170.893 27.9466C172.211 27.9781 173.519 27.7208 174.718 27.1942C175.775 26.6844 176.685 25.9334 177.37 25.0069L174.484 23.7095C173.512 24.608 172.211 25.102 170.864 25.0847C169.791 25.1238 168.739 24.7935 167.897 24.1532C167.111 23.5172 166.598 22.6231 166.459 21.6442L166.432 21.4807H178.427L178.454 20.9359ZM166.556 18.938L166.65 18.7382C167.079 17.8379 167.554 17.197 168.064 16.8337C168.88 16.2543 169.871 15.9489 170.885 15.9645C171.819 15.9505 172.733 16.2232 173.494 16.7429C174.22 17.2307 174.753 17.9416 175.004 18.759L175.061 18.9406L166.556 18.938Z" fill="#0086FF"/>
<path id="Vector_25" d="M77.5849 14.2075C76.4049 13.5551 75.0671 13.2132 73.706 13.2163C71.689 13.2368 69.7624 14.0245 68.3472 15.4072C66.932 16.7899 66.1432 18.6552 66.1533 20.5955C66.1369 21.5631 66.3249 22.5238 66.7061 23.4194C67.0872 24.315 67.6535 25.1268 68.3706 25.8055C69.0625 26.4949 69.8937 27.0406 70.8132 27.4092C71.7326 27.7778 72.7208 27.9614 73.7168 27.9487C75.0831 27.9608 76.4285 27.6261 77.6173 26.9783C78.7829 26.3371 79.7466 25.4048 80.4064 24.2799C81.0827 23.1508 81.4372 21.87 81.4341 20.5669C81.4397 19.2728 81.0859 18.0008 80.4092 16.8823C79.7325 15.7638 78.7574 14.8394 77.5849 14.2049V14.2075ZM76.7757 23.6857C76.3889 24.0798 75.9203 24.3913 75.4003 24.6C74.8804 24.8088 74.3206 24.9101 73.7573 24.8974C73.1982 24.9121 72.6421 24.8128 72.1257 24.6063C71.6092 24.3997 71.144 24.0904 70.7605 23.6987C69.9755 22.9047 69.579 21.8565 69.579 20.5851C69.5382 19.4492 69.968 18.3442 70.774 17.513C71.573 16.7462 72.6556 16.3155 73.7843 16.3155C74.913 16.3155 75.9956 16.7462 76.7946 17.513C77.5982 18.3501 78.024 19.4595 77.9787 20.5981C78.0154 21.7383 77.582 22.8463 76.773 23.6805L76.7757 23.6857Z" fill="#0086FF"/>
<path id="Vector_26" d="M227.774 13.7923V14.4514L227.478 14.2775L227.359 14.2075C226.179 13.5554 224.841 13.2136 223.48 13.2163C221.463 13.2368 219.537 14.0245 218.121 15.4072C216.706 16.7899 215.917 18.6552 215.927 20.5955C215.91 21.5632 216.098 22.5241 216.479 23.4197C216.861 24.3154 217.427 25.1271 218.145 25.8055C218.837 26.4949 219.668 27.0406 220.587 27.4092C221.507 27.7778 222.495 27.9614 223.491 27.9487C224.857 27.9609 226.203 27.6262 227.391 26.9783L227.486 26.9212L227.774 26.7526V27.5725H231.208V13.7923H227.774ZM226.544 23.6805C226.151 24.0622 225.682 24.3652 225.166 24.572C224.65 24.7787 224.096 24.8852 223.537 24.8852C222.978 24.8852 222.424 24.7787 221.908 24.572C221.392 24.3652 220.923 24.0622 220.529 23.6805C219.747 22.8865 219.348 21.8383 219.348 20.5669C219.327 20.0042 219.423 19.4432 219.628 18.916C219.834 18.3888 220.145 17.9059 220.545 17.4949C221.344 16.728 222.427 16.2973 223.556 16.2973C224.684 16.2973 225.767 16.728 226.566 17.4949C227.369 18.3322 227.794 19.4417 227.747 20.5799C227.769 21.1474 227.673 21.7133 227.467 22.2453C227.26 22.7774 226.947 23.265 226.544 23.6805Z" fill="#0086FF"/>
<path id="Vector_27" d="M247.495 15.1175C246.128 13.8872 244.323 13.206 242.451 13.213C241.09 13.2099 239.752 13.5518 238.572 14.2042L238.451 14.2742L238.154 14.4481V8.06787H234.723V27.5718H238.154V26.7415L238.445 26.9101C238.475 26.9302 238.505 26.9484 238.537 26.9646C239.725 27.6143 241.071 27.95 242.438 27.9376C243.434 27.9503 244.422 27.7668 245.341 27.3982C246.261 27.0296 247.092 26.4838 247.784 25.7944C248.501 25.1157 249.067 24.3039 249.448 23.4083C249.829 22.5127 250.017 21.552 250.001 20.5844C250.02 19.553 249.806 18.5299 249.373 17.586C248.94 16.642 248.3 15.7998 247.495 15.1175ZM245.399 23.6954C245.016 24.0871 244.551 24.3964 244.034 24.603C243.518 24.8095 242.962 24.9088 242.402 24.8941C241.839 24.9064 241.279 24.8047 240.759 24.5955C240.239 24.3863 239.771 24.0744 239.384 23.6798C238.98 23.2628 238.666 22.773 238.459 22.2386C238.253 21.7043 238.158 21.1359 238.181 20.5662C238.136 19.4282 238.561 18.3193 239.362 17.4812C240.162 16.7142 241.245 16.2834 242.374 16.2834C243.503 16.2834 244.586 16.7142 245.386 17.4812C246.192 18.3123 246.622 19.4173 246.581 20.5533C246.581 21.8636 246.184 22.9014 245.399 23.698V23.6954Z" fill="#0086FF"/>
</g>
</g>
</g>
</g>
</g>
</svg>
