<svg width="70" height="71" viewBox="0 0 70 71" fill="none" xmlns="http://www.w3.org/2000/svg">
<g id="Frame 410">
<rect y="0.391602" width="70" height="70" rx="35" fill="#0E6EFF"/>
<g id="bookmark_added">
<mask id="mask0_516_1543" style="mask-type:alpha" maskUnits="userSpaceOnUse" x="15" y="15" width="40" height="41">
<rect id="Bounding box" x="15" y="15.3916" width="40" height="40" fill="#D9D9D9"/>
</mask>
<g mask="url(#mask0_516_1543)">
<path id="bookmark_added_2" d="M35.0007 45.3916L28.0007 48.3916C26.8895 48.8638 25.834 48.7735 24.834 48.1208C23.834 47.468 23.334 46.5444 23.334 45.3499V23.7249C23.334 22.8083 23.6604 22.0235 24.3132 21.3708C24.9659 20.718 25.7507 20.3916 26.6673 20.3916H36.6673V23.7249H26.6673V45.3083L35.0007 41.7249L43.334 45.3083V33.7249H46.6673V45.3499C46.6673 46.5444 46.1673 47.468 45.1673 48.1208C44.1673 48.7735 43.1118 48.8638 42.0007 48.3916L35.0007 45.3916ZM44.709 25.6833L49.4173 20.9749C49.7507 20.6416 50.1465 20.4749 50.6048 20.4749C51.0632 20.4749 51.459 20.6416 51.7923 20.9749C52.1257 21.3083 52.2923 21.7041 52.2923 22.1624C52.2923 22.6208 52.1257 23.0166 51.7923 23.3499L45.8757 29.2249C45.5423 29.5583 45.1534 29.7249 44.709 29.7249C44.2645 29.7249 43.8757 29.5583 43.5423 29.2249L41.1673 26.8499C40.8618 26.5444 40.709 26.1624 40.709 25.7041C40.709 25.2458 40.8618 24.8499 41.1673 24.5166C41.5007 24.1833 41.8965 24.0166 42.3548 24.0166C42.8132 24.0166 43.209 24.1833 43.5423 24.5166L44.709 25.6833Z" fill="white"/>
</g>
</g>
</g>
</svg>
