<svg width="70" height="71" viewBox="0 0 70 71" fill="none" xmlns="http://www.w3.org/2000/svg">
<rect y="0.391602" width="70" height="70" rx="35" fill="#0E6EFF"/>
<mask id="mask0_528_2518" style="mask-type:alpha" maskUnits="userSpaceOnUse" x="15" y="15" width="40" height="41">
<rect x="15" y="15.3916" width="40" height="40" fill="#D9D9D9"/>
</mask>
<g mask="url(#mask0_528_2518)">
<path d="M18.3327 48.7253C17.8605 48.7253 17.4646 48.5655 17.1452 48.2461C16.8257 47.9266 16.666 47.5308 16.666 47.0586V44.0586C16.666 43.1141 16.9091 42.2461 17.3952 41.4544C17.8813 40.6628 18.5271 40.0586 19.3327 39.6419C21.0549 38.7808 22.8049 38.135 24.5827 37.7044C26.3605 37.2739 28.166 37.0586 29.9993 37.0586C31.8327 37.0586 33.6382 37.2739 35.416 37.7044C37.1938 38.135 38.9438 38.7808 40.666 39.6419C41.4716 40.0586 42.1174 40.6628 42.6035 41.4544C43.0896 42.2461 43.3327 43.1141 43.3327 44.0586V47.0586C43.3327 47.5308 43.173 47.9266 42.8535 48.2461C42.5341 48.5655 42.1382 48.7253 41.666 48.7253H18.3327ZM45.8743 48.7253C46.1243 48.5308 46.3188 48.2878 46.4577 47.9961C46.5966 47.7044 46.666 47.378 46.666 47.0169V43.7253C46.666 42.503 46.3257 41.3294 45.6452 40.2044C44.9646 39.0794 43.9994 38.1141 42.7494 37.3086C44.166 37.4753 45.4994 37.76 46.7494 38.1628C47.9994 38.5655 49.166 39.0586 50.2494 39.6419C51.2494 40.1975 52.0132 40.8155 52.541 41.4961C53.0688 42.1766 53.3327 42.9197 53.3327 43.7253V47.0586C53.3327 47.5308 53.173 47.9266 52.8535 48.2461C52.5341 48.5655 52.1382 48.7253 51.666 48.7253H45.8743ZM29.9993 35.3919C28.166 35.3919 26.5966 34.7391 25.291 33.4336C23.9855 32.128 23.3327 30.5586 23.3327 28.7253C23.3327 26.8919 23.9855 25.3225 25.291 24.0169C26.5966 22.7114 28.166 22.0586 29.9993 22.0586C31.8327 22.0586 33.4021 22.7114 34.7077 24.0169C36.0132 25.3225 36.666 26.8919 36.666 28.7253C36.666 30.5586 36.0132 32.128 34.7077 33.4336C33.4021 34.7391 31.8327 35.3919 29.9993 35.3919ZM46.666 28.7253C46.666 30.5586 46.0132 32.128 44.7077 33.4336C43.4021 34.7391 41.8327 35.3919 39.9993 35.3919C39.6938 35.3919 39.3049 35.3572 38.8327 35.2878C38.3605 35.2183 37.9716 35.1419 37.666 35.0586C38.416 34.1697 38.9924 33.1836 39.3952 32.1003C39.798 31.0169 39.9993 29.8919 39.9993 28.7253C39.9993 27.5586 39.798 26.4336 39.3952 25.3503C38.9924 24.2669 38.416 23.2808 37.666 22.3919C38.0549 22.253 38.4438 22.1628 38.8327 22.1211C39.2216 22.0794 39.6105 22.0586 39.9993 22.0586C41.8327 22.0586 43.4021 22.7114 44.7077 24.0169C46.0132 25.3225 46.666 26.8919 46.666 28.7253ZM19.9993 45.3919H39.9993V44.0586C39.9993 43.753 39.923 43.4753 39.7702 43.2253C39.6174 42.9753 39.416 42.7808 39.166 42.6419C37.666 41.8919 36.1521 41.3294 34.6244 40.9544C33.0966 40.5794 31.5549 40.3919 29.9993 40.3919C28.4438 40.3919 26.9021 40.5794 25.3743 40.9544C23.8466 41.3294 22.3327 41.8919 20.8327 42.6419C20.5827 42.7808 20.3813 42.9753 20.2285 43.2253C20.0757 43.4753 19.9993 43.753 19.9993 44.0586V45.3919ZM29.9993 32.0586C30.916 32.0586 31.7007 31.7322 32.3535 31.0794C33.0063 30.4266 33.3327 29.6419 33.3327 28.7253C33.3327 27.8086 33.0063 27.0239 32.3535 26.3711C31.7007 25.7183 30.916 25.3919 29.9993 25.3919C29.0827 25.3919 28.298 25.7183 27.6452 26.3711C26.9924 27.0239 26.666 27.8086 26.666 28.7253C26.666 29.6419 26.9924 30.4266 27.6452 31.0794C28.298 31.7322 29.0827 32.0586 29.9993 32.0586Z" fill="white"/>
</g>
</svg>
